<?xml version="1.0" encoding="UTF-8"?>
<svg width="828px" height="135px" viewBox="0 0 828 135" version="1.1" xmlns="http://www.w3.org/2000/svg" xmlns:xlink="http://www.w3.org/1999/xlink">
    <!-- Generator: Sketch 46.2 (44496) - http://www.bohemiancoding.com/sketch -->
    <title>usability-hub-logo</title>
    <desc>Created with Sketch.</desc>
    <defs></defs>
    <g id="Page-1" stroke="none" stroke-width="1" fill="none" fill-rule="evenodd">
        <g id="usability-hub-logo" transform="translate(-12.000000, -9.000000)" fill-rule="nonzero">
            <g id="Logotype" transform="translate(78.000000, 75.000000) rotate(-11.000000) translate(-78.000000, -75.000000) translate(12.000000, 12.000000)">
                <path d="M85.84122,0.221362993 C93.0336648,0.258694029 101.804491,5.60510968 105.431421,12.1628976 L126.91868,51.0144744 C130.545611,57.5723665 130.570177,68.2198656 126.973954,74.7965172 L105.960618,113.223952 C102.364396,119.800604 93.6181368,125.101598 86.4256914,125.064079 L43.8138652,124.843132 C36.6214199,124.805612 27.8506288,119.459456 24.2237666,112.901564 L2.73644563,74.0499522 C-0.89041653,67.4920602 -0.91520454,56.8445611 2.6810795,50.2679092 L23.694535,11.8405093 C27.2908259,5.26396171 36.0369485,-0.0371351023 43.2293938,0.000195969007 L85.84122,0.221362993 L85.84122,0.221362993 L85.84122,0.221362993 L85.84122,0.221362993 Z" id="head" fill="#DD6461"></path>
                <path d="M35.8257472,61.8374106 C39.5945134,61.8374106 42.649699,58.7266765 42.649699,54.8893872 C42.649699,51.0520979 39.5945134,47.9413635 35.8257472,47.9413635 C32.056981,47.9413635 29.0017954,51.0520979 29.0017954,54.8893872 C29.0017954,58.7266765 32.056981,61.8374106 35.8257472,61.8374106 L35.8257472,61.8374106 L35.8257472,61.8374106 L35.8257472,61.8374106 Z" id="eye-left" fill="#613433"></path>
                <path d="M93.829338,61.8374106 C97.5982062,61.8374106 100.65329,58.7266765 100.65329,54.8893872 C100.65329,51.0520979 97.5982062,47.9413635 93.829338,47.9413635 C90.0604692,47.9413635 87.0053862,51.0520979 87.0053862,54.8893872 C87.0053862,58.7266765 90.0604692,61.8374106 93.829338,61.8374106 L93.829338,61.8374106 L93.829338,61.8374106 L93.829338,61.8374106 Z" id="eye-right" fill="#613433"></path>
                <path d="M54.8604102,98.001249 C60.066369,100.244939 69.5887158,100.244939 74.7946068,98.001249 C80.9126208,95.3645088 85.8139242,90.3739518 88.4036136,84.1448052 C90.6074088,78.8441928 85.834737,73.9964526 80.1814344,73.9964526 L49.4736509,73.9964526 C43.8205186,73.9964526 39.0477931,78.8441928 41.2514167,84.1448052 C43.8410587,90.3739518 48.7424986,95.3645088 54.8604102,98.001249 L54.8604102,98.001249 L54.8604102,98.001249 L54.8604102,98.001249 Z" id="mouth" fill="#613433"></path>
                <path d="M53.0357196,95.1108366 C54.6704655,96.0651126 57.5446117,97.1721762 59.3998054,97.5085992 C62.77152,98.1199908 66.8835648,98.1199908 70.2552798,97.5085992 C72.1104732,97.1721762 74.9846196,96.0651126 76.6193652,95.1108366 C78.5765772,93.9683382 80.3322438,92.5498992 81.825324,90.9133614 C83.107545,89.507568 82.933875,86.9954058 81.4407942,85.8249762 C78.0646446,83.1786654 73.4449998,81.3428616 68.234025,80.7794502 C66.360168,80.5768494 63.2949168,80.5768494 61.4210598,80.7794502 C56.2100855,81.3428616 51.5904407,83.1786654 48.2144543,85.8249762 C46.7213089,86.9954058 46.5474789,89.507568 47.8298666,90.9133614 C49.322705,92.5498992 51.0785078,93.9683382 53.0357196,95.1108366 L53.0357196,95.1108366 L53.0357196,95.1108366 L53.0357196,95.1108366 Z" id="tongue" fill="#AB4F4F"></path>
            </g>
            <path d="M232.152304,88.9109826 C232.152304,103.408093 224.036767,110.788439 212.063024,110.788439 C199.956239,110.788439 191.840702,103.408093 191.840702,88.9109826 L191.840702,36.3260116 C191.840702,32.3722543 189.445953,30 185.986871,30 C182.394749,30 180,32.3722543 180,36.3260116 L180,88.9109826 C180,110.788439 192.771993,121.727168 211.929982,121.727168 C231.354054,121.727168 243.993005,110.788439 243.993005,88.9109826 L243.993005,36.3260116 C243.993005,32.3722543 241.598257,30 238.139176,30 C234.547052,30 232.152304,32.3722543 232.152304,36.3260116 L232.152304,88.9109826 Z M282.198374,121.727168 C299.094656,121.727168 308.141484,113.55607 308.141484,101.16763 C308.141484,90.8878614 302.287654,84.6936414 288.983495,83.2439304 L282.331415,82.5849708 C272.752421,81.6624276 269.825506,79.0265898 269.825506,74.0184972 C269.825506,68.8786128 273.949795,65.3202312 281.932291,65.3202312 C286.987871,65.3202312 291.777368,66.6381504 296.0347,68.6150292 C297.76424,69.4057806 298.961614,69.6693642 300.025947,69.6693642 C302.686779,69.6693642 304.815445,67.5606936 304.815445,64.9248552 C304.815445,62.947977 303.751112,61.498266 301.489405,60.3121386 C296.566866,57.5445087 289.914786,55.6994219 282.464457,55.6994219 C267.563799,55.6994219 258.916096,62.947977 258.916096,74.9410404 C258.916096,85.0890174 265.435133,91.4150292 277.941043,92.7329478 L284.593123,93.3919074 C294.704284,94.446243 297.099032,97.0820808 297.099032,102.353757 C297.099032,107.889017 292.309535,111.842774 283.129665,111.842774 C275.945419,111.842774 270.490714,109.338728 265.302092,106.307515 C263.705593,105.384971 262.64126,105.121387 261.576927,105.121387 C258.516971,105.121387 256.388305,107.493641 256.388305,110.12948 C256.388305,111.974566 257.319596,113.55607 259.049137,114.742196 C264.370801,118.43237 272.486338,121.727168 282.198374,121.727168 Z M372.289963,112.501734 C372.822129,113.424277 373.221254,114.610405 373.221254,115.66474 C373.221254,118.695954 370.826506,120.936416 367.500466,120.936416 C365.504842,120.936416 363.908342,120.013873 362.577927,118.168786 L360.050137,114.215029 L359.917095,114.215029 C355.659764,118.959538 349.672892,121.727168 340.359981,121.727168 C326.12453,121.727168 317.875952,114.742196 317.875952,102.749133 C317.875952,89.701734 326.92278,83.2439304 342.75473,83.2439304 L357.256263,83.2439304 C357.788429,83.2439304 358.054513,82.9803468 358.054513,82.453179 L358.054513,79.4219652 C358.054513,70.5919074 353.930223,65.5838148 342.75473,65.5838148 C337.832191,65.5838148 332.77661,67.1653182 329.716654,68.746821 C328.652321,69.2739882 327.454946,69.6693642 326.523655,69.6693642 C323.596741,69.6693642 321.734158,67.8242772 321.734158,64.9248552 C321.734158,63.2115606 322.532408,61.498266 324.39499,60.4439304 C328.386238,57.8080925 335.038318,55.6994219 343.819063,55.6994219 C360.848386,55.6994219 368.830882,63.7387284 368.830882,79.2901734 L368.830882,101.958382 C368.830882,105.253179 369.096965,106.571098 370.028256,108.416185 L372.289963,112.501734 Z M341.95648,112.23815 C351.801558,112.23815 358.054513,107.625434 358.054513,99.849711 L358.054513,92.8647396 C358.054513,92.3375724 357.788429,92.0739882 357.256263,92.0739882 L344.48427,92.0739882 C333.57486,92.0739882 328.652321,95.2369944 328.652321,102.353757 C328.652321,108.943352 333.441818,112.23815 341.95648,112.23815 Z M391.071259,120.936416 C387.878261,120.936416 385.483512,118.695954 385.483512,115.005781 L385.483512,35.9306359 C385.483512,32.2404624 387.878261,30 391.071259,30 C394.264257,30 396.659006,32.2404624 396.659006,35.9306359 L396.659006,64.1341038 L396.792047,64.1341038 C399.718963,59.2578035 405.306709,55.6994219 414.885704,55.6994219 C425.662073,55.6994219 433.511527,61.6300578 436.837567,71.5144506 C438.434065,76.5225432 439.099273,81.5306358 439.099273,88.647399 C439.099273,95.895954 438.434065,100.904046 436.837567,105.912139 C433.511527,115.796532 425.662073,121.727168 414.885704,121.727168 C405.439751,121.727168 399.852004,118.300578 396.792047,113.292485 L396.659006,113.292485 L396.659006,115.005781 C396.659006,118.695954 394.264257,120.936416 391.071259,120.936416 Z M412.224872,111.447399 C419.276077,111.447399 424.065574,107.889017 426.194239,101.563006 C427.391614,98.1364164 427.657697,94.1826588 427.657697,88.647399 C427.657697,83.2439304 427.391614,79.2901734 426.194239,75.8635836 C424.065574,69.5375724 419.276077,65.9791908 412.224872,65.9791908 C405.040626,65.9791908 400.251129,69.5375724 398.122463,75.8635836 C396.925089,79.2901734 396.659006,83.2439304 396.659006,88.647399 C396.659006,94.1826588 396.925089,98.1364164 398.122463,101.563006 C400.251129,107.889017 405.040626,111.447399 412.224872,111.447399 Z M457.880569,44.4971098 C461.871817,44.4971098 465.197857,41.2023121 465.197857,37.2485549 C465.197857,33.1630058 461.871817,30 457.880569,30 C453.889322,30 450.563282,33.1630058 450.563282,37.2485549 C450.563282,41.2023121 453.889322,44.4971098 457.880569,44.4971098 Z M452.292823,115.005781 C452.292823,118.695954 454.687571,120.936416 457.880569,120.936416 C461.073568,120.936416 463.468316,118.695954 463.468316,115.005781 L463.468316,62.4208092 C463.468316,58.7306359 461.073568,56.4901734 457.880569,56.4901734 C454.687571,56.4901734 452.292823,58.7306359 452.292823,62.4208092 L452.292823,115.005781 Z M497.017229,120.936416 C500.742394,120.936416 502.738018,118.827746 502.738018,115.796532 C502.738018,112.765318 500.742394,110.656648 497.549395,110.656648 C493.159023,110.656648 491.429482,108.679769 491.429482,103.408093 L491.429482,35.9306359 C491.429482,32.2404624 489.034733,30 485.841736,30 C482.648737,30 480.253988,32.2404624 480.253988,35.9306359 L480.253988,104.067052 C480.253988,115.401156 484.378278,120.936416 495.819854,120.936416 L497.017229,120.936416 Z M518.459357,44.4971098 C522.450605,44.4971098 525.776644,41.2023121 525.776644,37.2485549 C525.776644,33.1630058 522.450605,30 518.459357,30 C514.468109,30 511.142069,33.1630058 511.142069,37.2485549 C511.142069,41.2023121 514.468109,44.4971098 518.459357,44.4971098 Z M512.87161,115.005781 C512.87161,118.695954 515.266358,120.936416 518.459357,120.936416 C521.652355,120.936416 524.047104,118.695954 524.047104,115.005781 L524.047104,62.4208092 C524.047104,58.7306359 521.652355,56.4901734 518.459357,56.4901734 C515.266358,56.4901734 512.87161,58.7306359 512.87161,62.4208092 L512.87161,115.005781 Z M561.587264,120.936416 C565.578512,120.936416 567.574136,118.827746 567.574136,115.796532 C567.574136,112.765318 565.578512,110.656648 562.119431,110.656648 C555.334309,110.656648 553.604768,108.679769 553.604768,101.958382 L553.604768,66.901734 C553.604768,66.3745662 553.870852,66.1109826 554.403018,66.1109826 L562.784638,66.1109826 C565.844595,66.1109826 567.574136,64.2658962 567.574136,61.6300578 C567.574136,58.9942196 565.844595,57.1491329 562.784638,57.1491329 L554.403018,57.1491329 C553.870852,57.1491329 553.604768,56.8855492 553.604768,56.3583815 L553.604768,42.5202312 C553.604768,38.8300578 551.21002,36.5895954 548.017022,36.5895954 C544.824023,36.5895954 542.429275,38.8300578 542.429275,42.5202312 L542.429275,56.3583815 C542.429275,56.8855492 542.163192,57.1491329 541.631026,57.1491329 L538.038902,57.1491329 C534.978946,57.1491329 533.249405,58.9942196 533.249405,61.6300578 C533.249405,64.2658962 534.978946,66.1109826 538.038902,66.1109826 L541.631026,66.1109826 C542.163192,66.1109826 542.429275,66.3745662 542.429275,66.901734 L542.429275,102.353757 C542.429275,115.532948 547.218772,120.936416 560.256848,120.936416 L561.587264,120.936416 Z M582.364184,144 C591.544054,144 596.599634,140.705203 602.187384,126.471676 L626.134866,64.2658962 C626.400948,63.4751448 626.667036,62.552601 626.667036,61.6300578 C626.667036,58.7306359 624.538368,56.4901734 621.212328,56.4901734 C618.68454,56.4901734 616.954998,57.8080925 616.023708,60.4439304 L600.058716,104.067052 L599.792633,104.067052 L583.162433,60.4439304 C582.231142,57.8080925 580.501602,56.4901734 577.84077,56.4901734 C574.647772,56.4901734 572.253023,58.7306359 572.253023,61.6300578 C572.253023,62.552601 572.519106,63.4751448 572.785189,64.2658962 L594.470969,118.43237 L592.342303,124.231214 C589.54843,131.743352 586.488473,133.720231 581.299852,133.720231 C577.84077,133.720231 575.845146,135.960694 575.845146,138.860116 C575.845146,141.759538 577.84077,144 581.299852,144 L582.364184,144 Z M637.598874,114.610405 C637.598874,118.564162 639.993624,120.936416 643.585746,120.936416 C647.04483,120.936416 649.43958,118.564162 649.43958,114.610405 L649.43958,81.2670522 C649.43958,80.7398844 649.705662,80.4763008 650.237826,80.4763008 L689.485098,80.4763008 C690.017262,80.4763008 690.283344,80.7398844 690.283344,81.2670522 L690.283344,114.610405 C690.283344,118.564162 692.678094,120.936416 696.270216,120.936416 C699.7293,120.936416 702.12405,118.564162 702.12405,114.610405 L702.12405,36.3260116 C702.12405,32.3722543 699.7293,30 696.270216,30 C692.678094,30 690.283344,32.3722543 690.283344,36.3260116 L690.283344,68.746821 C690.283344,69.2739882 690.017262,69.5375724 689.485098,69.5375724 L650.237826,69.5375724 C649.705662,69.5375724 649.43958,69.2739882 649.43958,68.746821 L649.43958,36.3260116 C649.43958,32.3722543 647.04483,30 643.585746,30 C639.993624,30 637.598874,32.3722543 637.598874,36.3260116 L637.598874,114.610405 Z M769.332486,62.4208092 C769.332486,58.7306359 766.937736,56.4901734 763.744734,56.4901734 C760.551738,56.4901734 758.156988,58.7306359 758.156988,62.4208092 L758.156988,96.0277458 C758.156988,105.384971 752.436204,111.447399 743.7885,111.447399 C734.209506,111.447399 729.686088,105.516763 729.686088,95.3687862 L729.686088,62.4208092 C729.686088,58.7306359 727.291338,56.4901734 724.098342,56.4901734 C720.905346,56.4901734 718.510596,58.7306359 718.510596,62.4208092 L718.510596,98.004624 C718.510596,112.369942 726.62613,121.727168 740.46246,121.727168 C749.110164,121.727168 754.963992,118.036994 758.02395,113.160694 L758.156988,113.160694 L758.156988,115.005781 C758.156988,118.695954 760.551738,120.936416 763.744734,120.936416 C766.937736,120.936416 769.332486,118.695954 769.332486,115.005781 L769.332486,62.4208092 Z M791.971986,120.936416 C788.77899,120.936416 786.38424,118.695954 786.38424,115.005781 L786.38424,35.9306359 C786.38424,32.2404624 788.77899,30 791.971986,30 C795.164982,30 797.559732,32.2404624 797.559732,35.9306359 L797.559732,64.1341038 L797.692776,64.1341038 C800.61969,59.2578035 806.207436,55.6994219 815.78643,55.6994219 C826.562802,55.6994219 834.412254,61.6300578 837.738294,71.5144506 C839.334792,76.5225432 840,81.5306358 840,88.647399 C840,95.895954 839.334792,100.904046 837.738294,105.912139 C834.412254,115.796532 826.562802,121.727168 815.78643,121.727168 C806.34048,121.727168 800.752728,118.300578 797.692776,113.292485 L797.559732,113.292485 L797.559732,115.005781 C797.559732,118.695954 795.164982,120.936416 791.971986,120.936416 Z M813.125598,111.447399 C820.176804,111.447399 824.966298,107.889017 827.094966,101.563006 C828.292338,98.1364164 828.558426,94.1826588 828.558426,88.647399 C828.558426,83.2439304 828.292338,79.2901734 827.094966,75.8635836 C824.966298,69.5375724 820.176804,65.9791908 813.125598,65.9791908 C805.941354,65.9791908 801.151854,69.5375724 799.023192,75.8635836 C797.825814,79.2901734 797.559732,83.2439304 797.559732,88.647399 C797.559732,94.1826588 797.825814,98.1364164 799.023192,101.563006 C801.151854,107.889017 805.941354,111.447399 813.125598,111.447399 Z" id="Text" fill="#343A40"></path>
        </g>
    </g>
</svg>